<svg xmlns="http://www.w3.org/2000/svg" width="507" height="206" fill="none"><rect width="150" height="150" x="1" y="28" fill="#8D75F5" rx="75"/><path fill="#fff" d="M112.555 109.715c0 5.307-1.062 9.873-3.073 13.207-2.581 4.283-6.592 6.549-11.6 6.549-9.558 0-15.983-11.991-22.783-24.684-4.942-9.22-11.074-20.695-16.116-20.695-2.43 0-5.407 2.953-7.77 7.705a42.171 42.171 0 0 0-4.205 17.918c0 3.876.706 7.179 1.986 9.303 1.188 1.973 2.817 2.89 5.124 2.89 4.333 0 9.652-9.139 11.4-12.13a3.782 3.782 0 0 1 6.537 3.81c-2.808 4.815-5.21 8.194-7.564 10.645-3.38 3.523-6.768 5.238-10.373 5.238-5.008 0-9.02-2.266-11.6-6.549-2.01-3.334-3.073-7.9-3.073-13.207 0-13.856 7.431-33.186 19.538-33.186 9.558 0 15.983 11.991 22.784 24.684 4.947 9.221 11.083 20.695 16.115 20.695 2.307 0 3.936-.917 5.124-2.89 1.28-2.124 1.986-5.427 1.986-9.303a42.175 42.175 0 0 0-4.201-17.918c-2.364-4.752-5.341-7.705-7.774-7.705-1.803 0-3.974 1.576-6.457 4.674a3.782 3.782 0 0 1-5.906-4.727c4.05-5.052 8.093-7.51 12.363-7.51 5.562 0 10.714 4.226 14.543 11.9a50.123 50.123 0 0 1 4.995 21.286Z"/><path fill="#16151C" d="M239.122 145.528v-80.33h12.394v80.33h-12.394Zm-52.444 0v-80.33h12.394v80.33h-12.394Zm5.394-34.083V99.51h52.558v11.935h-52.558ZM273.978 145.528v-80.33h34.198c4.59 0 8.798 1.147 12.623 3.443 3.902 2.218 7 5.278 9.295 9.18 2.295 3.825 3.443 8.148 3.443 12.968 0 4.36-1.148 8.415-3.443 12.164-2.295 3.749-5.355 6.77-9.18 9.066-3.825 2.218-8.071 3.328-12.738 3.328h-21.804v30.181h-12.394Zm47.739 0-20.427-36.264 12.738-2.868 22.722 39.246-15.033-.114Zm-35.345-42.116h22.951c2.219 0 4.208-.536 5.968-1.607 1.759-1.147 3.136-2.677 4.131-4.59.995-1.99 1.492-4.17 1.492-6.541 0-2.678-.651-5.011-1.951-7-1.224-2.066-2.984-3.673-5.279-4.82-2.219-1.148-4.743-1.722-7.574-1.722h-19.738v26.28ZM353.77 145.528v-80.33h12.164l29.263 47.624-5.852-.115 29.607-47.51h11.476v80.331h-12.394v-32.936c0-6.885.153-13.082.459-18.59.382-5.508.994-10.979 1.836-16.41l1.607 4.246-26.28 40.623h-7.574l-25.476-40.164 1.263-4.705a149.812 149.812 0 0 1 1.721 15.836c.383 5.355.574 11.743.574 19.164v32.936H353.77ZM477.737 146.675c-4.361 0-8.416-.574-12.164-1.721a33.236 33.236 0 0 1-10.099-5.164c-2.984-2.372-5.661-5.279-8.033-8.722l8.492-9.754c3.749 5.355 7.345 9.066 10.787 11.131 3.443 2.066 7.536 3.099 12.279 3.099 2.907 0 5.547-.459 7.918-1.377 2.372-.918 4.246-2.181 5.624-3.787 1.377-1.607 2.065-3.443 2.065-5.509 0-1.377-.229-2.677-.688-3.901-.459-1.224-1.186-2.334-2.181-3.328-.918-.995-2.142-1.913-3.672-2.755-1.454-.841-3.175-1.568-5.164-2.18-1.989-.688-4.284-1.262-6.885-1.721-4.132-.842-7.727-1.951-10.788-3.328-3.06-1.377-5.623-3.099-7.688-5.164-2.066-2.066-3.596-4.4-4.591-7-.994-2.678-1.491-5.662-1.491-8.951 0-3.214.688-6.197 2.065-8.951a22.804 22.804 0 0 1 5.853-7.115c2.524-2.066 5.47-3.634 8.836-4.705 3.366-1.148 7-1.722 10.902-1.722 4.131 0 7.918.536 11.361 1.607 3.443 1.07 6.503 2.678 9.18 4.82 2.678 2.065 4.897 4.628 6.656 7.688l-8.721 8.607c-1.53-2.525-3.252-4.628-5.164-6.312-1.913-1.76-4.017-3.06-6.312-3.901-2.295-.918-4.743-1.377-7.344-1.377-2.984 0-5.585.459-7.804 1.377-2.218.918-3.978 2.218-5.279 3.901-1.224 1.607-1.836 3.52-1.836 5.738 0 1.607.306 3.099.918 4.476.612 1.3 1.53 2.486 2.755 3.557 1.3.995 3.022 1.913 5.164 2.755 2.142.764 4.705 1.453 7.688 2.065 4.208.918 7.957 2.104 11.246 3.558 3.29 1.377 6.083 3.021 8.378 4.934 2.295 1.913 4.016 4.055 5.164 6.426 1.224 2.372 1.836 4.935 1.836 7.689 0 5.126-1.186 9.563-3.558 13.312-2.371 3.749-5.737 6.656-10.098 8.721-4.361 1.99-9.563 2.984-15.607 2.984Z"/></svg>